<?xml version="1.0" standalone="no"?>
<!DOCTYPE svg PUBLIC "-//W3C//DTD SVG 20010904//EN"
 "http://www.w3.org/TR/2001/REC-SVG-20010904/DTD/svg10.dtd">
<svg version="1.0" xmlns="http://www.w3.org/2000/svg"
 width="30" height="30" viewBox="0 0 436.000000 436.000000"
 preserveAspectRatio="xMidYMid meet">

<g transform="translate(0.000000,413.000000) scale(0.100000,-0.100000)"
fill="#f33" stroke="none">
<path d="M1862 4120 c-382 -40 -743 -181 -1049 -408 -113 -85 -320 -292 -405
-405 -200 -269 -331 -577 -387 -906 -30 -176 -30 -496 0 -672 56 -329 187
-637 387 -906 85 -113 292 -320 405 -405 270 -200 572 -329 912 -389 106 -19
166 -23 330 -23 164 0 224 4 330 23 340 60 642 189 912 389 113 85 320 292
405 405 200 270 329 572 389 912 19 106 23 166 23 330 0 164 -4 224 -23 330
-60 340 -189 642 -389 912 -85 113 -292 320 -405 405 -269 200 -576 331 -907
387 -142 25 -399 35 -528 21z m451 -215 c267 -35 540 -140 777 -298 433 -290
738 -776 805 -1284 30 -228 14 -519 -39 -724 -48 -182 -148 -404 -259 -569
-290 -433 -776 -738 -1284 -805 -146 -19 -370 -19 -516 0 -508 67 -994 372
-1284 805 -143 213 -247 469 -288 704 -21 123 -21 539 0 662 83 477 385 937
796 1212 230 154 509 261 767 297 134 18 387 18 525 0z"/>
<path d="M668 2789 c-72 -10 -130 -39 -161 -81 -59 -78 -59 -212 0 -279 12
-15 17 -15 52 3 31 15 56 18 134 16 l95 -3 -50 -90 c-176 -318 -269 -710 -200
-843 60 -114 223 -152 387 -91 55 20 135 95 135 126 0 8 -11 29 -25 48 -67 86
-90 257 -62 445 15 100 72 338 83 349 3 3 56 6 117 6 96 0 118 3 152 22 139
76 181 211 99 319 -23 31 -24 32 -61 18 -55 -19 -138 -17 -344 10 -240 32
-283 35 -351 25z"/>
<path d="M2950 2760 c-218 -11 -238 -14 -245 -43 -3 -12 -59 -305 -123 -650
-80 -421 -115 -630 -107 -633 6 -3 103 -3 215 -2 l205 3 112 589 c62 324 115
596 117 603 8 21 112 17 161 -7 62 -30 80 -68 79 -170 -1 -189 -85 -308 -232
-329 -25 -3 -45 -10 -46 -16 0 -19 86 -75 142 -91 49 -15 70 -16 145 -6 247
31 387 192 375 431 -11 223 -148 315 -482 325 -78 3 -220 1 -316 -4z"/>
<path d="M1630 2740 c0 -6 -54 -300 -120 -654 -66 -354 -120 -645 -120 -647 0
-2 47 -3 105 -1 68 2 152 -4 245 -17 222 -33 295 -36 368 -17 124 31 184 102
184 215 0 34 -7 71 -16 89 l-16 32 -42 -30 c-60 -44 -137 -64 -250 -64 -53 -1
-99 2 -103 6 -6 6 45 303 61 360 5 15 8 15 47 -2 58 -26 152 -35 207 -20 59
16 113 72 129 133 23 93 34 87 -164 87 -160 0 -175 2 -175 18 0 31 52 307 60
315 4 5 35 -1 70 -13 81 -27 221 -30 274 -5 70 33 116 109 116 193 l0 32 -430
0 c-293 0 -430 -3 -430 -10z"/>
</g>
</svg>
